<svg t="1744695172685" class="icon" viewBox="0 0 1365 1024" version="1.1" xmlns="http://www.w3.org/2000/svg" p-id="22449" width="200" height="200"><path d="M1175.24176 588.266667c-47.733333 0.266667-89.066667 11.733333-123.733333 28.8-12.8-25.333333-25.6-47.466667-27.733334-64-2.4-19.2-5.333333-30.933333-2.4-53.866667s16.266667-55.466667 16.266667-58.133333c-0.266667-2.4-2.933333-14.133333-30.4-14.4-27.466667-0.266667-51.2 5.333333-53.866667 12.533333s-8 23.733333-11.466666 40.8c-4.8 25.066667-54.933333 113.866667-83.466667 160.533333-9.333333-18.133333-17.333333-34.133333-18.933333-46.933333-2.4-19.2-5.333333-30.933333-2.4-53.866667s16.266667-55.466667 16.266666-58.133333c-0.266667-2.4-2.933333-14.133333-30.4-14.4-27.466667-0.266667-51.2 5.333333-53.866666 12.533333s-5.6 24.266667-11.466667 40.8c-5.6 16.533333-72.266667 164.8-89.6 203.466667-8.8 19.733333-16.533333 35.466667-22.133333 46.133333s-0.266667 0.8-0.8 1.866667c-4.8 9.066667-7.466667 14.133333-7.466667 14.133333v0.266667c-3.733333 6.666667-7.733333 13.066667-9.6 13.066667-1.333333 0-4-17.866667 0.533333-42.4 9.866667-51.466667 33.866667-131.733333 33.6-134.666667 0-1.333333 4.533333-15.466667-15.466666-22.666667-19.466667-7.2-26.4 4.8-28 4.8-1.6 0-2.933333 4.266667-2.933334 4.266667s21.6-90.4-41.333333-90.4c-39.466667 0-93.866667 42.933333-120.8 82.133333-17.066667 9.333333-53.333333 29.066667-91.733333 50.133334-14.666667 8-29.866667 16.533333-44.266667 24.266666l-2.933333-3.2c-76.266667-81.333333-217.333333-138.933333-211.466667-248.266666 2.133333-39.733333 16-144.533333 270.933333-271.466667 208.8-104 376-75.466667 405.066667-12 41.333333 90.666667-89.333333 259.2-306.4 283.466667-82.666667 9.333333-126.133333-22.666667-137.066667-34.666667-11.466667-12.533333-13.066667-13.066667-17.333333-10.666667-6.933333 3.733333-2.666667 14.933333 0 21.6 6.4 16.8 33.066667 46.666667 78.4 61.6 39.733333 13.066667 136.8 20.266667 254.133333-25.066666 131.466667-50.933333 234.133333-192.266667 204-310.4-30.666667-120.266667-230.133333-159.733333-418.666666-92.8-112.266667 40-233.866667 102.4-321.333334 184.266666C10.975093 314.4-5.55824 399.2 1.375093 434.4c24.266667 125.6 197.333333 207.466667 266.666667 268-3.466667 1.866667-6.666667 3.733333-9.6 5.333333-34.666667 17.066667-166.666667 86.133333-199.733333 159.2-37.333333 82.666667 5.866667 142.133333 34.666666 150.133334 89.066667 24.8 180.266667-19.733333 229.6-93.066667 49.066667-73.333333 43.2-168.533333 20.533334-212l-0.8-1.6 27.2-16c17.6-10.4 34.933333-20 50.133333-28.266667-8.533333 23.2-14.666667 50.666667-17.866667 90.666667-3.733333 46.933333 15.466667 107.733333 40.8 131.733333 11.2 10.4 24.533333 10.666667 32.8 10.666667 29.333333 0 42.666667-24.266667 57.333334-53.333333 18.133333-35.466667 34.133333-76.533333 34.133333-76.533334s-20 111.2 34.666667 111.2c20 0 40-25.866667 49.066666-39.2v0.266667s0.533333-0.8 1.6-2.666667c2.133333-3.2 3.2-5.066667 3.2-5.066666v-0.533334c8-13.866667 25.866667-45.6 52.533334-98.133333 34.4-67.733333 67.466667-152.533333 67.466666-152.533333s3.2 20.8 13.066667 54.933333c5.866667 20.266667 18.666667 42.4 28.533333 64-8 11.2-12.8 17.6-12.8 17.6l0.266667 0.266667c-6.4 8.533333-13.6 17.6-21.066667 26.666666-27.2 32.533333-59.733333 69.6-64 80.266667-5.066667 12.533333-4 21.866667 5.866667 29.333333 7.2 5.333333 20 6.4 33.6 5.333334 24.533333-1.6 41.6-7.733333 50.133333-11.466667 13.333333-4.8 28.533333-12 43.2-22.666667 26.666667-19.733333 42.933333-47.733333 41.333334-85.066666-0.8-20.533333-7.466667-40.8-15.733334-60 2.4-3.466667 4.8-6.933333 7.2-10.666667 42.133333-61.6 74.666667-129.333333 74.666667-129.333333s3.2 20.8 13.066667 54.933333c5.066667 17.333333 15.2 36.266667 24.266666 54.933333-39.466667 32.266667-64.266667 69.6-72.8 94.133334-15.733333 45.333333-3.466667 65.866667 19.733334 70.666666 10.4 2.133333 25.333333-2.666667 36.533333-7.466666 13.866667-4.533333 30.666667-12.266667 46.133333-23.733334 26.666667-19.733333 52.266667-47.2 50.933334-84.266666-0.8-17.066667-5.333333-33.866667-11.466667-49.866667 33.6-13.866667 77.066667-21.866667 132.266667-15.2 118.666667 13.866667 142.133333 88 137.6 118.933333-4.533333 30.933333-29.333333 48-37.6 53.333334-8.266667 5.066667-10.933333 6.933333-10.133334 10.666666 1.066667 5.6 4.8 5.333333 12 4.266667 9.866667-1.6 62.4-25.333333 64.533334-82.4 3.2-73.333333-66.4-153.333333-189.866667-152.533333zM260.04176 896.8c-39.2 42.933333-94.4 59.2-117.866667 45.333333-25.333333-14.666667-15.466667-77.866667 32.8-123.466666 29.333333-27.733333 67.466667-53.333333 92.533334-69.066667 5.6-3.466667 14.133333-8.533333 24.266666-14.666667 1.6-1.066667 2.666667-1.6 2.666667-1.6 1.866667-1.066667 4-2.4 6.133333-3.733333 17.866667 65.066667 0.8 122.133333-40.533333 167.2z m286.666667-194.933333c-13.6 33.333333-42.4 118.933333-59.733334 114.133333-14.933333-4-24-68.8-2.933333-132.8 10.666667-32.266667 33.333333-70.666667 46.666667-85.6 21.6-24 45.066667-32 50.933333-22.133333 6.933333 12.8-26.4 105.6-34.933333 126.4z m236.533333 113.066666c-5.866667 2.933333-11.2 5.066667-13.6 3.466667-1.866667-1.066667 2.4-5.066667 2.4-5.066667s29.6-31.733333 41.333333-46.4c6.666667-8.533333 14.666667-18.4 23.2-29.6v3.2c0 38.4-36.8 64-53.333333 74.4zM965.64176 773.333333c-4.266667-3.2-3.733333-13.066667 10.666667-44 5.6-12.266667 18.4-32.8 40.533333-52.266666 2.666667 8 4.266667 15.733333 4 22.933333-0.266667 48-34.4 65.866667-55.2 73.333333z" fill="#CF649A" p-id="22450"></path></svg>